<svg id="Capa_1" enable-background="new 0 0 512 512" height="512" viewBox="0 0 512 512" width="512" xmlns="http://www.w3.org/2000/svg"><g><path d="m62.091 410.017c-3.401 3.086-8.684 2.57-11.429-1.11-31.823-42.667-50.662-95.587-50.662-152.907 0-139.801 112.062-253.429 251.26-255.956 143.175-2.6 260.037 111.482 260.737 254.678.262 53.634-15.97 103.463-43.918 144.707-2.419 3.569-7.393 4.216-10.729 1.484-50.728-41.563-118.239-66.913-192.35-66.913-79.378 0-151.185 29.081-202.909 76.017z" fill="#ffb52d"/><path d="m473.667 230c0 108.248-87.752 196-196 196s-196-87.752-196-196 87.752-196 196-196 196 87.753 196 196z" fill="#ffc14f"/><path d="m430 155v102.493c0 135.549-112.755 244.474-248.174 238.53-11.142-.489-19.564-1.676-24.159-3.59-43.119-17.954-80.274-47.359-107.667-84.418v-253.015c0-8.284 6.716-15 15-15h350c8.284 0 15 6.716 15 15z" fill="#44bfd7"/><path d="m70 431.898c-7.135-7.542-13.816-15.518-20-23.884v-253.014c0-8.284 6.716-15 15-15h5z" fill="#2cb3cd"/><path d="m300 470h-110c-5.523 0-10-4.477-10-10v-240c0-5.523 4.477-10 10-10h110c5.523 0 10 4.477 10 10v240c0 5.523-4.477 10-10 10z" fill="#def4f8"/><path d="m310 220v68.678l-130 130v-97.355l111.322-111.323h8.678c5.523 0 10 4.477 10 10z" fill="#c2eaf2"/><path d="m270 322.5c0 4.142-3.358 7.5-7.5 7.5h-55c-4.142 0-7.5-3.358-7.5-7.5s3.358-7.5 7.5-7.5h55c4.142 0 7.5 3.358 7.5 7.5zm-27.5 22.5h-35c-4.142 0-7.5 3.358-7.5 7.5s3.358 7.5 7.5 7.5h35c4.142 0 7.5-3.358 7.5-7.5s-3.358-7.5-7.5-7.5z" fill="#7cd2e3"/><path d="m260 265c0 4.142-3.358 7.5-7.5 7.5h-20v20c0 4.142-3.358 7.5-7.5 7.5s-7.5-3.358-7.5-7.5v-20h-20c-4.142 0-7.5-3.358-7.5-7.5s3.358-7.5 7.5-7.5h20v-20c0-4.142 3.358-7.5 7.5-7.5s7.5 3.358 7.5 7.5v20h20c4.142 0 7.5 3.358 7.5 7.5z" fill="#5f55af"/><path d="m310 504.039c0 1.313-.92 2.455-2.206 2.719-16.727 3.437-34.05 5.242-51.794 5.242-34.842 0-68.058-6.96-98.333-19.567v-107.433c0-2.761 2.239-5 5-5h142.333c2.761 0 5 2.239 5 5z" fill="#fb5858"/><path d="m184.833 380c-2.761 0-5 2.239-5 5v115.478c-7.544-2.348-14.939-5.035-22.167-8.045v-107.433c0-2.761 2.239-5 5-5z" fill="#f44545"/><path d="m217.667 480c0 11.046-8.954 20-20 20s-20-8.954-20-20 8.954-20 20-20c11.045 0 20 8.954 20 20zm40-40c11.046 0 20-8.954 20-20s-8.954-20-20-20-20 8.954-20 20 8.954 20 20 20zm0 20c-11.046 0-20 8.954-20 20s8.954 20 20 20 20-8.954 20-20-8.955-20-20-20zm-60-60c-11.046 0-20 8.954-20 20s8.954 20 20 20 20-8.954 20-20-8.955-20-20-20z" fill="#faa598"/><path d="m247.667 420c0-5.523 4.477-10 10-10s10 4.477 10 10-4.477 10-10 10-10-4.477-10-10zm-50 50c-5.523 0-10 4.477-10 10s4.477 10 10 10 10-4.477 10-10-4.477-10-10-10zm60 0c-5.523 0-10 4.477-10 10s4.477 10 10 10 10-4.477 10-10-4.477-10-10-10zm-60-60c-5.523 0-10 4.477-10 10s4.477 10 10 10 10-4.477 10-10-4.477-10-10-10z" fill="#fff5f5"/><path d="m312 240h159.443c2.761 0 5 2.239 5 5 0 49.966-2.594 99.898-7.77 149.595l-.487 4.674c-34.59 51.128-87.172 89.087-148.659 104.786-4.199 1.073-7.527-264.055-7.527-264.055z" fill="#fff5f5"/><path d="m326.816 502.079c-6.565 1.886-13.238 3.516-20.008 4.879l-11.704-112.362c-5.177-49.697-7.77-99.63-7.77-149.596 0-2.761 2.239-5 5-5h32.897c.561 43.796 3.113 87.547 7.652 131.117-.001 0 24.092 122.299-6.067 130.962z" fill="#ffe7c0"/><path d="m326.817 502.079-9.209-176.819c-.149-2.86 2.13-5.26 4.993-5.26h119.466c2.864 0 5.142 2.4 4.993 5.26l-5.583 107.19c-30.938 32.51-70.334 56.896-114.66 69.629z" fill="#865cb2"/><path d="m417.333 320c0 11.046-8.954 20-20 20s-20-8.954-20-20 8.954-20 20-20 20 8.955 20 20zm-65-50c-8.284 0-15 6.716-15 15s6.716 15 15 15 15-6.716 15-15-6.715-15-15-15z" fill="#a88ac8"/><path d="m419.667 336c0 5.523-4.477 10-10 10s-10-4.477-10-10 4.477-10 10-10 10 4.477 10 10zm-69.667 124c-5.523 0-10 4.477-10 10s4.477 10 10 10 10-4.477 10-10-4.477-10-10-10zm37.333-100c-5.523 0-10 4.477-10 10s4.477 10 10 10 10-4.477 10-10-4.477-10-10-10z" fill="#b9a1d3"/><path d="m398.547 398.787c9.884 9.884 11.429 24.95 4.635 36.454-1.259 2.131-9.184-.739-11.015 1.092s2.539 8.256.408 9.515c-11.504 6.794-26.57 5.249-36.455-4.635-9.884-9.884-11.429-24.95-4.635-36.455 1.259-2.131 9.184 1.073 11.015-.759s-2.539-8.589-.408-9.848c11.504-6.794 26.57-5.249 36.455 4.636z" fill="#fff5f5"/><path d="m351.485 404.759c1.259-2.131 2.804-4.141 4.635-5.972s3.84-3.376 5.972-4.635l41.09 41.089c-1.259 2.131-2.804 4.141-4.635 5.972s-3.84 3.376-5.972 4.635z" fill="#dce6eb"/><path d="m317.5 82.5v100c0 4.143-3.358 7.5-7.5 7.5s-7.5-3.357-7.5-7.5v-100c0-37.22-30.28-67.5-67.5-67.5s-67.5 30.28-67.5 67.5v100c0 4.143-3.358 7.5-7.5 7.5s-7.5-3.357-7.5-7.5v-100c0-45.49 37.009-82.5 82.5-82.5s82.5 37.01 82.5 82.5zm-175 260h-5v-5c0-4.142-3.358-7.5-7.5-7.5s-7.5 3.358-7.5 7.5v5h-5c-4.142 0-7.5 3.358-7.5 7.5s3.358 7.5 7.5 7.5h5v5c0 4.142 3.358 7.5 7.5 7.5s7.5-3.358 7.5-7.5v-5h5c4.142 0 7.5-3.358 7.5-7.5s-3.358-7.5-7.5-7.5z" fill="#fff5f5"/></g></svg>